HIERARCHY
ROOT SpineBase
{
  OFFSET 0.000000 0.000000 0.000000
  CHANNELS 6 Xposition Yposition Zposition Zrotation Xrotation Yrotation
  JOINT SpineMid
  {
    OFFSET 0.000000 30.039593 0.000000
    CHANNELS 3 Zrotation Xrotation Yrotation
    JOINT SpineShoulder
    {
      OFFSET 0.030911 22.303147 -0.920060
      CHANNELS 3 Zrotation Xrotation Yrotation
      JOINT Neck
      {
        OFFSET 0.105160 7.389362 -0.622546
        CHANNELS 3 Zrotation Xrotation Yrotation
        JOINT Head
        {
          OFFSET -6.549161 11.529154 -0.199274
          CHANNELS 3 Zrotation Xrotation Yrotation
          End Site
          {
            OFFSET 0 0 0
          }
        }
      }
      JOINT ShoulderLeft
      {
        OFFSET -12.268701 -5.110176 6.535737
        CHANNELS 3 Zrotation Xrotation Yrotation
        JOINT ElbowLeft
        {
          OFFSET -2.440632 -28.632220 -1.595587
          CHANNELS 3 Zrotation Xrotation Yrotation
          JOINT WristLeft
          {
            OFFSET 2.877945 -21.765069 -0.906671
            CHANNELS 3 Zrotation Xrotation Yrotation
            JOINT HandLeft
            {
              OFFSET 0.187979 -2.630748 -0.812113
              CHANNELS 3 Zrotation Xrotation Yrotation
              JOINT HandTipLeft
              {
                OFFSET 0.666889 -3.727437 -0.277015
                CHANNELS 3 Zrotation Xrotation Yrotation
                End Site
                {
                  OFFSET 0 0 0
                }
              }
              JOINT ThumbLeft
              {
                OFFSET 1.864727 0.891140 -3.015994
                CHANNELS 3 Zrotation Xrotation Yrotation
                End Site
                {
                  OFFSET 0 0 0
                }
              }
            }
          }
        }
      }
      JOINT ShoulderRight
      {
        OFFSET 11.436215 -4.230354 -10.985596
        CHANNELS 3 Zrotation Xrotation Yrotation
        JOINT ElbowRight
        {
          OFFSET 6.955306 -22.848036 -4.807871
          CHANNELS 3 Zrotation Xrotation Yrotation
          JOINT WristRight
          {
            OFFSET -4.710500 -20.711081 -3.306850
            CHANNELS 3 Zrotation Xrotation Yrotation
            JOINT HandRight
            {
              OFFSET -1.104859 -6.249248 0.209072
              CHANNELS 3 Zrotation Xrotation Yrotation
              JOINT HandTipRight
              {
                OFFSET -0.021499 -7.866083 0.676964
                CHANNELS 3 Zrotation Xrotation Yrotation
                End Site
                {
                  OFFSET 0 0 0
                }
              }
              JOINT ThumbRight
              {
                OFFSET -3.221553 0.051243 -2.330297
                CHANNELS 3 Zrotation Xrotation Yrotation
                End Site
                {
                  OFFSET 0 0 0
                }
              }
            }
          }
        }
      }
    }
  }
  JOINT HipLeft
  {
    OFFSET -5.315793 -0.370628 0.442153
    CHANNELS 3 Zrotation Xrotation Yrotation
    JOINT KneeLeft
    {
      OFFSET 5.682354 -28.824300 5.432817
      CHANNELS 3 Zrotation Xrotation Yrotation
      JOINT AnkleLeft
      {
        OFFSET 0.352425 -35.805338 7.469781
        CHANNELS 3 Zrotation Xrotation Yrotation
        JOINT FootLeft
        {
          OFFSET -5.673533 -6.291051 -3.834941
          CHANNELS 3 Zrotation Xrotation Yrotation
          End Site
          {
            OFFSET 0 0 0
          }
        }
      }
    }
  }
  JOINT HipRight
  {
    OFFSET 6.144722 1.185160 -7.438994
    CHANNELS 3 Zrotation Xrotation Yrotation
    JOINT KneeRight
    {
      OFFSET 12.266633 -32.928406 -0.536393
      CHANNELS 3 Zrotation Xrotation Yrotation
      JOINT AnkleRight
      {
        OFFSET 5.142039 -31.669860 -0.675064
        CHANNELS 3 Zrotation Xrotation Yrotation
        JOINT FootRight
        {
          OFFSET -1.595350 -6.859321 -9.965688
          CHANNELS 3 Zrotation Xrotation Yrotation
          End Site
          {
            OFFSET 0 0 0
          }
        }
      }
    }
  }
}
MOTION
Frames: 14
Frame Time: 0.033333
-47.754374 72.814449 425.442656 -1.992214 -4.134811 31.822437 -0.059120 0.394177 -31.966882 0.368863 -0.088553 -0.028659 -5.237737 -1.172701 -2.909780 0.000000 0.000000 0.000000 4.210510 -1.556181 0.328413 -12.700365 20.105447 4.493944 37.115365 -41.297360 2.833194 -27.705069 24.856383 15.634132 0.000000 0.000000 0.000000 0.000000 0.000000 0.000000 -5.326087 -1.124997 0.201277 1.300012 1.588351 1.753561 10.020329 -8.135444 0.434942 -13.196987 8.255361 -0.943597 0.000000 0.000000 0.000000 0.000000 0.000000 0.000000 -4.405524 1.574172 -33.941828 4.555737 3.936458 1.703342 -8.788024 5.149635 3.655819 0.000000 0.000000 0.000000 -0.828717 1.931601 -32.842130 0.724303 -1.315991 0.360987 7.726209 4.360629 -6.798513 0.000000 0.000000 0.000000
-47.766709 72.900185 425.283472 -2.089664 -4.356673 31.832338 0.016343 0.359473 -31.987097 0.393264 -0.137138 -0.026144 -4.974365 -0.504894 -2.619592 0.000000 0.000000 0.000000 4.531460 -1.966556 0.355719 -14.144862 19.577610 4.641418 37.965966 -45.735318 3.504327 -28.307280 28.429338 17.146159 0.000000 0.000000 0.000000 0.000000 0.000000 0.000000 -6.218943 -0.780924 0.478099 2.900765 0.853032 1.456390 7.423985 -4.694223 -0.325165 -12.648101 4.821278 -1.082393 0.000000 0.000000 0.000000 0.000000 0.000000 0.000000 -4.519376 2.193482 -33.953635 5.810689 2.869869 1.810418 -8.378804 2.729850 5.573333 0.000000 0.000000 0.000000 -0.435226 3.136822 -32.436206 1.387509 -3.295905 -0.239478 9.855893 6.664441 -10.706408 0.000000 0.000000 0.000000
-48.022720 72.930309 425.365736 -2.347943 -4.762043 31.411793 0.094160 0.351199 -31.592994 0.433793 -0.164990 -0.028943 -4.620000 0.509636 -2.180313 0.000000 0.000000 0.000000 4.943031 -1.952684 0.352079 -14.651577 19.098284 4.585928 36.925670 -54.572607 4.842715 -28.773276 42.715708 20.732759 0.000000 0.000000 0.000000 0.000000 0.000000 0.000000 -6.462459 -0.184232 0.706237 4.392705 0.320554 1.123143 3.226804 -2.819072 -0.563968 -10.158091 5.397319 -1.019343 0.000000 0.000000 0.000000 0.000000 0.000000 0.000000 -4.730369 2.838799 -33.609060 7.498016 2.579352 2.034451 -4.863431 3.928813 2.112082 0.000000 0.000000 0.000000 0.642482 5.190417 -31.275183 2.441453 -6.499425 -1.208974 11.290337 9.135853 -14.222058 0.000000 0.000000 0.000000
-48.465875 72.868648 425.649418 -2.704762 -5.327602 30.548910 0.196069 0.377844 -30.769649 0.490083 -0.164935 -0.034267 -4.457122 1.667757 -1.695098 0.000000 0.000000 0.000000 5.059804 -2.102850 0.399837 -14.236363 19.837041 4.598413 43.667215 -65.068367 11.138920 -26.876797 52.110239 20.536825 0.000000 0.000000 0.000000 0.000000 0.000000 0.000000 -6.495584 0.603895 0.957154 5.869831 0.036051 0.714304 -1.026448 -1.351828 -0.576878 -4.786443 4.924320 -1.010210 0.000000 0.000000 0.000000 0.000000 0.000000 0.000000 -4.679636 3.482730 -32.798236 9.076165 2.224827 2.244454 -3.366950 2.557439 1.914347 0.000000 0.000000 0.000000 2.121089 7.934968 -29.471977 3.742554 -10.525549 -2.339165 11.894008 11.441903 -16.950099 0.000000 0.000000 0.000000
-49.065497 72.761865 426.076544 -3.065265 -5.916339 29.588238 0.293144 0.424253 -29.852918 0.541144 -0.145109 -0.040652 -4.652864 2.827056 -1.184022 0.000000 0.000000 0.000000 5.273306 -2.394367 0.455902 -14.404726 20.575421 4.749231 43.145239 -70.022258 12.668245 -25.956977 56.136561 20.848834 0.000000 0.000000 0.000000 0.000000 0.000000 0.000000 -6.724290 0.597950 0.962826 7.436436 1.230099 0.352231 -4.419064 -2.911099 -0.173954 -0.008972 7.955585 -1.060884 0.000000 0.000000 0.000000 0.000000 0.000000 0.000000 -4.700863 4.241685 -31.879786 11.063429 1.882763 2.516389 -0.260100 0.710650 0.849331 0.000000 0.000000 0.000000 3.640269 10.936990 -27.544148 5.142299 -14.784750 -3.386201 11.546578 13.283097 -18.492454 0.000000 0.000000 0.000000
-49.815458 72.582216 426.632585 -3.440883 -6.563729 28.566802 0.388127 0.496771 -28.881831 0.591541 -0.102004 -0.047990 -5.223518 3.850323 -0.730420 0.000000 0.000000 0.000000 5.268088 -2.761905 0.540449 -14.335317 21.162121 4.829761 21.382362 -75.022695 -0.316557 -15.176459 66.071911 15.308986 0.000000 0.000000 0.000000 0.000000 0.000000 0.000000 -6.215475 0.320950 0.659414 7.880483 3.465237 0.155477 -7.307613 -7.001220 0.297048 4.118360 13.601615 -1.551190 0.000000 0.000000 0.000000 0.000000 0.000000 0.000000 -4.574591 5.091412 -30.857782 13.073464 1.494879 2.796444 1.716252 -1.642284 0.911371 0.000000 0.000000 0.000000 5.272922 13.923512 -25.650426 6.344002 -18.797687 -4.231050 10.421029 14.534092 -18.881086 0.000000 0.000000 0.000000
-50.594958 72.301417 427.204283 -4.031093 -7.403327 27.387956 0.201895 0.500626 -27.785398 0.802354 0.086944 -0.065088 -4.889429 4.976203 -0.367822 0.000000 0.000000 0.000000 5.079514 -3.273485 0.690214 -14.714120 22.042658 5.175005 0.004344 -75.510130 -15.674253 -0.806164 68.617226 5.028573 0.000000 0.000000 0.000000 0.000000 0.000000 0.000000 -6.327996 -0.329065 0.391435 9.635479 7.053167 -0.460008 -11.101136 -16.861021 0.958424 8.316524 23.622839 -3.451916 0.000000 0.000000 0.000000 0.000000 0.000000 0.000000 -4.141417 5.789534 -29.722384 15.344640 1.943009 3.123054 3.081786 -5.905911 2.554986 0.000000 0.000000 0.000000 7.083199 16.589593 -23.851664 7.162021 -22.115404 -4.826296 8.641359 14.600748 -17.872969 0.000000 0.000000 0.000000
-51.145931 71.820050 427.683018 -4.070968 -7.900150 27.630584 0.627419 0.661424 -28.048212 0.523675 -0.091148 -0.061833 -6.500190 6.368972 0.547076 0.000000 0.000000 0.000000 4.862111 -4.032050 0.797266 -14.347635 23.303764 5.300440 -20.238826 -70.571565 -26.488578 34.814876 68.894609 -23.286602 0.000000 0.000000 0.000000 0.000000 0.000000 0.000000 -4.858295 -0.034668 0.004486 8.456631 8.507244 -0.440846 -18.046013 -28.052917 -0.103564 18.437985 34.561697 -8.285656 0.000000 0.000000 0.000000 0.000000 0.000000 0.000000 -5.016002 6.914545 -30.000248 19.017535 2.539134 3.636067 -2.597271 -1.736720 -0.502147 0.000000 0.000000 0.000000 8.233141 18.518200 -23.672141 7.976018 -24.640566 -5.151508 7.652125 15.093167 -17.909916 0.000000 0.000000 0.000000
-51.748236 71.629306 428.103290 -3.805937 -8.143308 26.225264 0.609734 0.662662 -26.624453 0.511208 -0.004611 -0.047181 -8.794625 8.220630 1.994168 0.000000 0.000000 0.000000 4.185959 -5.164199 0.942595 -13.640057 23.589776 5.071405 -15.190278 -63.703427 -19.163504 48.181725 62.628263 -33.118613 0.000000 0.000000 0.000000 0.000000 0.000000 0.000000 -2.971228 0.217675 -0.563129 6.916531 9.812166 -0.370193 -21.970775 -39.931234 -1.243163 26.713354 46.133992 -15.402020 0.000000 0.000000 0.000000 0.000000 0.000000 0.000000 -6.523530 7.692107 -28.582159 21.539452 2.728013 3.985194 2.379146 -2.151792 -4.675643 0.000000 0.000000 0.000000 8.287714 20.094496 -21.902714 8.586784 -26.212999 -5.269724 7.388144 15.643133 -18.884156 0.000000 0.000000 0.000000
-52.161076 71.560811 428.337566 -2.956279 -7.845001 23.927636 0.741975 0.802618 -24.230172 0.294450 -0.135266 -0.016979 -11.899685 8.802411 2.919296 0.000000 0.000000 0.000000 3.612436 -6.778254 1.062337 -13.575923 23.829038 4.944120 -17.838391 -59.358509 -17.874056 56.203995 60.096545 -37.460136 0.000000 0.000000 0.000000 0.000000 0.000000 0.000000 -1.848206 0.580732 -0.863026 5.145991 9.501730 -0.164689 -22.286914 -43.070781 -1.397949 26.509778 48.045788 -16.232285 0.000000 0.000000 0.000000 0.000000 0.000000 0.000000 -8.509367 7.434123 -26.272187 22.330374 2.965359 4.075415 3.871365 1.208641 -9.356591 0.000000 0.000000 0.000000 6.566849 21.269047 -19.087960 9.259488 -26.984160 -5.271038 7.905340 16.060305 -20.518022 0.000000 0.000000 0.000000
-52.880487 71.680671 428.735244 -1.612900 -6.557729 22.108718 0.504151 0.698159 -22.253969 0.169242 -0.287310 0.020005 -14.455806 9.528909 4.136391 0.000000 0.000000 0.000000 2.302240 -8.957610 1.213732 -12.494715 24.335571 4.570986 -15.329225 -51.447133 -12.585857 54.589877 53.183545 -32.923591 0.000000 0.000000 0.000000 0.000000 0.000000 0.000000 -0.408508 1.727051 -0.905744 2.967792 7.743899 -0.240223 -15.746304 -41.818326 1.572127 15.744076 45.846433 -10.994887 0.000000 0.000000 0.000000 0.000000 0.000000 0.000000 -11.648162 6.465947 -24.583510 21.844592 3.447852 3.981839 8.891041 8.347175 -19.488527 0.000000 0.000000 0.000000 4.166977 21.030139 -16.829178 9.749574 -26.724133 -5.088935 8.960546 15.997996 -22.942439 0.000000 0.000000 0.000000
-53.814153 71.492393 429.207362 -0.005218 -4.510164 19.974803 0.605710 0.974776 -19.975193 0.040444 -0.363172 0.061526 -16.396463 9.426693 5.154213 0.000000 0.000000 0.000000 0.342801 -11.933183 1.297634 -10.835159 25.701381 4.237292 -17.086256 -50.604605 -12.574893 42.663945 48.966576 -23.698595 0.000000 0.000000 0.000000 0.000000 0.000000 0.000000 1.114459 1.866853 -0.998706 0.109349 5.431369 -0.266502 -8.260920 -31.185910 3.596720 1.959235 34.694452 -3.724375 0.000000 0.000000 0.000000 0.000000 0.000000 0.000000 -15.036026 4.540587 -22.841411 20.354743 1.490763 3.838900 18.761855 24.338901 -40.208127 0.000000 0.000000 0.000000 1.347534 20.055250 -14.262504 10.420344 -26.093336 -4.772151 9.759714 15.332750 -25.337476 0.000000 0.000000 0.000000
-55.185612 72.215414 430.028032 1.640195 -2.031052 25.944299 0.744419 1.070188 -25.867207 -0.038446 -0.405421 0.097836 -19.011930 9.635705 6.565081 0.000000 0.000000 0.000000 -0.997130 -13.880361 1.192041 -9.698523 25.101724 3.696400 -10.561656 -37.428856 -5.921113 27.952051 36.393899 -11.228665 0.000000 0.000000 0.000000 0.000000 0.000000 0.000000 2.702607 1.696879 -1.029175 -3.189850 2.872837 -0.286099 -0.879683 -19.035475 3.800934 -8.909871 24.428390 -0.386127 0.000000 0.000000 0.000000 0.000000 0.000000 0.000000 -17.010633 6.071491 -28.599810 20.229039 -1.905985 3.860142 28.474542 47.240057 -66.519733 0.000000 0.000000 0.000000 0.969178 16.809737 -20.963674 10.936816 -23.400877 -4.052602 10.170669 14.069084 -27.163889 0.000000 0.000000 0.000000
-56.512286 72.860163 430.892110 4.001547 1.864379 29.059656 0.746226 1.131404 -29.012739 -0.055018 -0.371198 0.147958 -20.758429 8.789750 7.394937 0.000000 0.000000 0.000000 -2.726564 -16.412749 0.917328 -9.193936 25.249309 3.610316 -1.222341 -19.423240 -1.493857 15.133750 16.659869 -2.718032 0.000000 0.000000 0.000000 0.000000 0.000000 0.000000 3.459361 -0.034517 -0.916807 -4.116450 1.212133 -0.912383 1.330917 -9.223872 2.967488 -13.731592 13.352048 -0.177394 0.000000 0.000000 0.000000 0.000000 0.000000 0.000000 -20.355972 5.334233 -32.167816 21.096838 -5.257472 4.084486 41.569294 73.530162 -94.051917 0.000000 0.000000 0.000000 -1.838418 13.263346 -24.605511 11.276146 -20.583473 -3.449210 10.282174 12.221148 -28.421582 0.000000 0.000000 0.000000
